<svg width="32" height="32" viewBox="0 0 32 32" fill="none" xmlns="http://www.w3.org/2000/svg">
<path d="M9.33301 28C7.12767 28 5.33301 26.2053 5.33301 24C5.33301 21.7947 7.12767 20 9.33301 20C11.5383 20 13.333 21.7947 13.333 24C13.333 26.2053 11.5383 28 9.33301 28ZM9.33301 22.6667C8.59834 22.6667 7.99967 23.264 7.99967 24C7.99967 24.736 8.59834 25.3333 9.33301 25.3333C10.0677 25.3333 10.6663 24.736 10.6663 24C10.6663 23.264 10.0677 22.6667 9.33301 22.6667Z" fill="#575B65"/>
<path d="M24 28C21.7947 28 20 26.2053 20 24C20 21.7947 21.7947 20 24 20C26.2053 20 28 21.7947 28 24C28 26.2053 26.2053 28 24 28ZM24 22.6667C23.264 22.6667 22.6667 23.264 22.6667 24C22.6667 24.736 23.264 25.3333 24 25.3333C24.736 25.3333 25.3333 24.736 25.3333 24C25.3333 23.264 24.736 22.6667 24 22.6667Z" fill="#575B65"/>
<path d="M6.66699 25.3334H2.66699V5.33337H20.0003V17.3334H17.3337V8.00004H5.33366V22.6667H6.66699V25.3334Z" fill="#575B65"/>
<path d="M21.3333 22.6666H12V25.3333H21.3333V22.6666Z" fill="#575B65"/>
<path d="M29.3337 24H26.667V16.444L23.3337 12H18.667V9.33337H24.667L29.3337 15.556V24Z" fill="#575B65"/>
<path d="M14.6667 14.6666H8V17.3333H14.6667V14.6666Z" fill="#575B65"/>
<path d="M14.6667 10.6666H8V13.3333H14.6667V10.6666Z" fill="#575B65"/>
</svg>
