<svg width="32" height="32" viewBox="0 0 32 32" fill="none" xmlns="http://www.w3.org/2000/svg">
<path d="M28.9426 27.0573L22.8906 21.0053C24.6865 18.7286 25.5445 15.8517 25.2893 12.9632C25.034 10.0747 23.6847 7.39293 21.5174 5.46646C19.3501 3.53999 16.5286 2.51445 13.6301 2.59964C10.7316 2.68483 7.97516 3.8743 5.92473 5.92473C3.8743 7.97516 2.68483 10.7316 2.59964 13.6301C2.51445 16.5286 3.53999 19.3501 5.46646 21.5174C7.39293 23.6847 10.0747 25.034 12.9632 25.2893C15.8517 25.5445 18.7286 24.6865 21.0053 22.8906L27.0573 28.9426L28.9426 27.0573ZM13.9999 22.6666C12.2858 22.6666 10.6102 22.1583 9.185 21.206C7.75977 20.2537 6.64894 18.9002 5.99298 17.3165C5.33702 15.7329 5.16539 13.9903 5.4998 12.3092C5.8342 10.628 6.65962 9.08373 7.87168 7.87168C9.08373 6.65962 10.628 5.8342 12.3092 5.4998C13.9903 5.16539 15.7329 5.33702 17.3165 5.99298C18.9002 6.64894 20.2537 7.75977 21.206 9.185C22.1583 10.6102 22.6666 12.2858 22.6666 13.9999C22.6638 16.2976 21.7498 18.5004 20.1251 20.1251C18.5004 21.7498 16.2976 22.6638 13.9999 22.6666Z" fill="#575B65"/>
<path d="M13.1266 15.2399L10.276 12.3906L8.39062 14.2759L13.54 19.4266L19.776 10.0733L17.5573 8.59326L13.1266 15.2399Z" fill="#575B65"/>
</svg>
