<svg width="120" height="32" viewBox="0 0 120 32" fill="none" xmlns="http://www.w3.org/2000/svg">
<path d="M37.8154 16.7973C37.8154 15.4324 38.106 14.2027 38.6872 13.1351C39.2684 12.054 40.0742 11.2162 41.1045 10.6216C42.148 10.0135 43.3236 9.71619 44.6445 9.71619C46.256 9.71619 47.6297 10.1486 48.7789 11.027C49.9281 11.8919 50.6942 13.0811 51.0773 14.5811H47.4448C47.1806 14 46.7843 13.554 46.2824 13.2567C45.7937 12.9594 45.2257 12.7973 44.6049 12.7973C43.5878 12.7973 42.7556 13.1621 42.1348 13.8783C41.5007 14.6081 41.1837 15.5675 41.1837 16.7838C41.1837 18 41.5007 18.9594 42.1348 19.6892C42.7688 20.4189 43.5878 20.7702 44.6049 20.7702C45.2389 20.7702 45.7937 20.6216 46.2824 20.3108C46.7843 20.0135 47.1674 19.5675 47.4448 18.9865H51.0773C50.6942 20.4865 49.9281 21.6756 48.7789 22.5405C47.6297 23.3919 46.256 23.8243 44.6445 23.8243C43.3236 23.8243 42.148 23.527 41.1045 22.9324C40.0742 22.3243 39.2684 21.4865 38.6872 20.4189C38.106 19.3513 37.8154 18.1621 37.8154 16.7973Z" fill="#171717"/>
<path d="M56.1629 9.12158V23.7567H52.8606V9.12158H56.1629Z" fill="#171717"/>
<path d="M68.4869 18.0541C68.4869 18.3649 68.4737 18.7027 68.4341 19.0406H60.9578C61.0106 19.7297 61.222 20.2568 61.5918 20.6216C61.9749 20.973 62.4504 21.1622 63.0052 21.1622C63.8241 21.1622 64.4053 20.8108 64.7223 20.0946H68.2359C68.051 20.8243 67.7208 21.473 67.2453 22.0541C66.7829 22.6351 66.1885 23.0946 65.4885 23.4189C64.7752 23.7433 63.9826 23.9189 63.1108 23.9189C62.0541 23.9189 61.1163 23.6892 60.2841 23.2297C59.4651 22.7703 58.8179 22.1081 58.3556 21.2568C57.8933 20.4054 57.6555 19.3919 57.6555 18.2568C57.6555 17.1081 57.8801 16.1081 58.3292 15.2568C58.7915 14.4054 59.4387 13.7433 60.2577 13.2838C61.0767 12.8243 62.0277 12.5946 63.0976 12.5946C64.1411 12.5946 65.0658 12.8243 65.8847 13.2703C66.6905 13.7162 67.3245 14.3514 67.7736 15.1892C68.2624 15.9865 68.4869 16.9595 68.4869 18.0541ZM65.1054 17.1757C65.1054 16.5946 64.9073 16.1351 64.5242 15.7973C64.1411 15.4595 63.6524 15.2838 63.0712 15.2838C62.5164 15.2838 62.0409 15.446 61.6578 15.7838C61.288 16.1081 61.0502 16.5811 60.9578 17.1892H65.1054V17.1757Z" fill="#171717"/>
<path d="M69.3455 18.2162C69.3455 17.081 69.5568 16.081 69.9663 15.2297C70.389 14.3783 70.9702 13.7162 71.6835 13.2567C72.41 12.7972 73.2157 12.5675 74.1007 12.5675C74.8668 12.5675 75.5273 12.7297 76.0953 13.0405C76.6765 13.3513 77.1256 13.7702 77.4294 14.2837V12.7162H80.7316V23.7567H77.4294V22.1891C77.1124 22.7026 76.65 23.1216 76.0821 23.4324C75.5141 23.7432 74.8536 23.9053 74.0875 23.9053C73.2157 23.9053 72.41 23.6756 71.6967 23.2162C70.9702 22.7432 70.4022 22.081 69.9795 21.2162C69.5436 20.3513 69.3455 19.3513 69.3455 18.2162ZM77.4294 18.2432C77.4294 17.4053 77.1916 16.7297 76.7293 16.2432C76.2802 15.7567 75.7254 15.5134 75.065 15.5134C74.4045 15.5134 73.8497 15.7567 73.3874 16.2432C72.9383 16.7162 72.7138 17.3783 72.7138 18.2162C72.7138 19.054 72.9383 19.7297 73.3874 20.2297C73.8497 20.7162 74.4177 20.9594 75.065 20.9594C75.7254 20.9594 76.2802 20.7162 76.7293 20.2297C77.1916 19.7432 77.4294 19.081 77.4294 18.2432Z" fill="#171717"/>
<path d="M89.4496 12.6081C90.7177 12.6081 91.7216 13.027 92.4613 13.8784C93.2274 14.7027 93.5972 15.8513 93.5972 17.3243V23.7703H90.3214V17.7838C90.3214 17.0405 90.1365 16.473 89.7666 16.0676C89.3968 15.6621 88.8948 15.4594 88.2608 15.4594C87.6268 15.4594 87.1248 15.6621 86.755 16.0676C86.3851 16.473 86.2002 17.054 86.2002 17.7838V23.7703H82.8979V12.7162H86.2002V14.1757C86.5304 13.6892 86.9927 13.3108 87.5475 13.027C88.1155 12.7432 88.7495 12.6081 89.4496 12.6081Z" fill="#171717"/>
<path d="M97.3353 11.5676C96.7541 11.5676 96.2786 11.3919 95.9088 11.0541C95.5521 10.7027 95.3672 10.2568 95.3672 9.74326C95.3672 9.21623 95.5521 8.7838 95.9088 8.43245C96.2786 8.0811 96.7541 7.89191 97.3353 7.89191C97.9033 7.89191 98.3656 8.06758 98.7223 8.43245C99.0921 8.77028 99.2771 9.21623 99.2771 9.74326C99.2771 10.2568 99.0921 10.6892 98.7223 11.0541C98.3656 11.4054 97.9033 11.5676 97.3353 11.5676ZM98.9733 12.7162V23.7568H95.671V12.7162H98.9733Z" fill="#171717"/>
<path d="M111.31 18.0541C111.31 18.3649 111.297 18.7027 111.258 19.0406H103.781C103.834 19.7297 104.045 20.2568 104.415 20.6216C104.798 20.973 105.274 21.1622 105.829 21.1622C106.648 21.1622 107.229 20.8108 107.546 20.0946H111.059C110.874 20.8243 110.544 21.473 110.069 22.0541C109.606 22.6351 109.012 23.0946 108.312 23.4189C107.599 23.7433 106.806 23.9189 105.934 23.9189C104.878 23.9189 103.94 23.6892 103.108 23.2297C102.289 22.7703 101.641 22.1081 101.179 21.2568C100.717 20.4054 100.479 19.3919 100.479 18.2568C100.479 17.1081 100.704 16.1081 101.153 15.2568C101.615 14.4054 102.262 13.7433 103.081 13.2838C103.9 12.8243 104.851 12.5946 105.921 12.5946C106.965 12.5946 107.889 12.8243 108.708 13.2703C109.514 13.7162 110.148 14.3514 110.597 15.1892C111.073 15.9865 111.31 16.9595 111.31 18.0541ZM107.929 17.1757C107.929 16.5946 107.731 16.1351 107.348 15.7973C106.965 15.4595 106.476 15.2838 105.895 15.2838C105.34 15.2838 104.864 15.446 104.481 15.7838C104.111 16.1081 103.874 16.5811 103.781 17.1892H107.929V17.1757Z" fill="#171717"/>
<path d="M116.118 14.5541C116.501 13.946 116.99 13.473 117.571 13.1351C118.153 12.7838 118.8 12.5946 119.5 12.5946V16.1757H118.589C117.77 16.1757 117.149 16.3649 116.739 16.7297C116.33 17.0811 116.118 17.7162 116.118 18.6216V23.7432H112.816V12.7162H116.118V14.5541Z" fill="#171717"/>
<path d="M16.2366 7.9054V0C7.55108 0 0.5 6.97297 0.5 15.5676H8.49662C8.71275 11.4324 12.0627 8.12162 16.2366 7.9054Z" fill="#00D2B7"/>
<path d="M8.49662 16.4326H0.5C0.5 25.0272 7.55108 32.0002 16.2366 32.0002V24.0948C12.0627 23.8786 8.71275 20.5678 8.49662 16.4326Z" fill="#171717"/>
<path d="M32.4459 12.0676C30.8384 5.16216 24.5843 0 17.1145 0V7.9054C20.0187 8.05405 22.5176 9.68919 23.8414 12.0676H32.4459Z" fill="#171717"/>
<path d="M23.9359 19.7568C22.6257 22.2163 20.0727 23.9325 17.1145 24.0947V32.0001C24.6519 32.0001 30.9465 26.7568 32.4999 19.7568H23.9359Z" fill="#171717"/>
</svg>
