<svg width="119" height="32" viewBox="0 0 119 32" fill="none" xmlns="http://www.w3.org/2000/svg">
<path d="M37.3154 16.7971C37.3154 15.4323 37.606 14.2026 38.1872 13.135C38.7684 12.0539 39.5742 11.2161 40.6045 10.6215C41.648 10.0134 42.8236 9.71606 44.1445 9.71606C45.756 9.71606 47.1297 10.1485 48.2789 11.0269C49.4281 11.8917 50.1942 13.0809 50.5773 14.5809H46.9448C46.6806 13.9998 46.2844 13.5539 45.7824 13.2566C45.2937 12.9593 44.7257 12.7971 44.1049 12.7971C43.0878 12.7971 42.2556 13.162 41.6348 13.8782C41.0007 14.608 40.6837 15.5674 40.6837 16.7836C40.6837 17.9998 41.0007 18.9593 41.6348 19.689C42.2688 20.4188 43.0878 20.7701 44.1049 20.7701C44.7389 20.7701 45.2937 20.6215 45.7824 20.3107C46.2844 20.0134 46.6674 19.5674 46.9448 18.9863H50.5773C50.1942 20.4863 49.4281 21.6755 48.2789 22.5404C47.1297 23.3917 45.756 23.8242 44.1445 23.8242C42.8236 23.8242 41.648 23.5269 40.6045 22.9323C39.5742 22.3242 38.7684 21.4863 38.1872 20.4188C37.606 19.3512 37.3154 18.162 37.3154 16.7971Z" fill="white"/>
<path d="M55.6626 9.12158V23.7567H52.3604V9.12158H55.6626Z" fill="white"/>
<path d="M67.9867 18.0539C67.9867 18.3648 67.9735 18.7026 67.9338 19.0404H60.4575C60.5104 19.7296 60.7217 20.2566 61.0916 20.6215C61.4746 20.9729 61.9501 21.1621 62.5049 21.1621C63.3239 21.1621 63.9051 20.8107 64.2221 20.0945H67.7357C67.5508 20.8242 67.2205 21.4729 66.745 22.0539C66.2827 22.635 65.6883 23.0945 64.9882 23.4188C64.2749 23.7431 63.4824 23.9188 62.6106 23.9188C61.5539 23.9188 60.616 23.6891 59.7839 23.2296C58.9649 22.7702 58.3177 22.108 57.8553 21.2566C57.393 20.4053 57.1553 19.3918 57.1553 18.2566C57.1553 17.108 57.3798 16.108 57.8289 15.2566C58.2912 14.4053 58.9385 13.7431 59.7575 13.2837C60.5764 12.8242 61.5275 12.5945 62.5974 12.5945C63.6409 12.5945 64.5655 12.8242 65.3845 13.2702C66.1902 13.7161 66.8243 14.3512 67.2734 15.1891C67.7621 15.9864 67.9867 16.9593 67.9867 18.0539ZM64.6052 17.1756C64.6052 16.5945 64.407 16.135 64.024 15.7972C63.6409 15.4593 63.1522 15.2837 62.571 15.2837C62.0162 15.2837 61.5407 15.4458 61.1576 15.7837C60.7878 16.108 60.55 16.581 60.4575 17.1891H64.6052V17.1756Z" fill="white"/>
<path d="M68.8452 18.2163C68.8452 17.0811 69.0566 16.0811 69.466 15.2298C69.8887 14.3784 70.4699 13.7163 71.1832 13.2568C71.9097 12.7974 72.7155 12.5676 73.6005 12.5676C74.3666 12.5676 75.027 12.7298 75.595 13.0406C76.1762 13.3514 76.6253 13.7703 76.9291 14.2838V12.7163H80.2314V23.7568H76.9291V22.1892C76.6121 22.7028 76.1498 23.1217 75.5818 23.4325C75.0138 23.7433 74.3534 23.9055 73.5873 23.9055C72.7155 23.9055 71.9097 23.6757 71.1964 23.2163C70.4699 22.7433 69.9019 22.0811 69.4792 21.2163C69.0433 20.3514 68.8452 19.3514 68.8452 18.2163ZM76.9291 18.2433C76.9291 17.4055 76.6914 16.7298 76.2291 16.2433C75.7799 15.7568 75.2252 15.5136 74.5647 15.5136C73.9043 15.5136 73.3495 15.7568 72.8872 16.2433C72.4381 16.7163 72.2135 17.3784 72.2135 18.2163C72.2135 19.0541 72.4381 19.7298 72.8872 20.2298C73.3495 20.7163 73.9175 20.9595 74.5647 20.9595C75.2252 20.9595 75.7799 20.7163 76.2291 20.2298C76.6914 19.7433 76.9291 19.0811 76.9291 18.2433Z" fill="white"/>
<path d="M88.9496 12.6082C90.2177 12.6082 91.2216 13.0271 91.9613 13.8784C92.7274 14.7027 93.0972 15.8514 93.0972 17.3244V23.7703H89.8214V17.7838C89.8214 17.0406 89.6365 16.473 89.2666 16.0676C88.8968 15.6622 88.3948 15.4595 87.7608 15.4595C87.1268 15.4595 86.6248 15.6622 86.255 16.0676C85.8851 16.473 85.7002 17.0541 85.7002 17.7838V23.7703H82.3979V12.7163H85.7002V14.1757C86.0304 13.6892 86.4927 13.3109 87.0475 13.0271C87.6155 12.7433 88.2495 12.6082 88.9496 12.6082Z" fill="white"/>
<path d="M96.8353 11.5675C96.2541 11.5675 95.7786 11.3918 95.4088 11.054C95.0521 10.7027 94.8672 10.2567 94.8672 9.7432C94.8672 9.21617 95.0521 8.78374 95.4088 8.43239C95.7786 8.08103 96.2541 7.89185 96.8353 7.89185C97.4033 7.89185 97.8656 8.06752 98.2223 8.43239C98.5921 8.77022 98.7771 9.21617 98.7771 9.7432C98.7771 10.2567 98.5921 10.6891 98.2223 11.054C97.8656 11.4054 97.4033 11.5675 96.8353 11.5675ZM98.4733 12.7162V23.7567H95.171V12.7162H98.4733Z" fill="white"/>
<path d="M110.81 18.0539C110.81 18.3648 110.797 18.7026 110.758 19.0404H103.281C103.334 19.7296 103.545 20.2566 103.915 20.6215C104.298 20.9729 104.774 21.1621 105.329 21.1621C106.148 21.1621 106.729 20.8107 107.046 20.0945H110.559C110.374 20.8242 110.044 21.4729 109.569 22.0539C109.106 22.635 108.512 23.0945 107.812 23.4188C107.099 23.7431 106.306 23.9188 105.434 23.9188C104.378 23.9188 103.44 23.6891 102.608 23.2296C101.789 22.7702 101.141 22.108 100.679 21.2566C100.217 20.4053 99.979 19.3918 99.979 18.2566C99.979 17.108 100.204 16.108 100.653 15.2566C101.115 14.4053 101.762 13.7431 102.581 13.2837C103.4 12.8242 104.351 12.5945 105.421 12.5945C106.465 12.5945 107.389 12.8242 108.208 13.2702C109.014 13.7161 109.648 14.3512 110.097 15.1891C110.573 15.9864 110.81 16.9593 110.81 18.0539ZM107.429 17.1756C107.429 16.5945 107.231 16.135 106.848 15.7972C106.465 15.4593 105.976 15.2837 105.395 15.2837C104.84 15.2837 104.364 15.4458 103.981 15.7837C103.611 16.108 103.374 16.581 103.281 17.1891H107.429V17.1756Z" fill="white"/>
<path d="M115.619 14.5539C116.002 13.9458 116.49 13.4729 117.072 13.135C117.653 12.7837 118.3 12.5945 119 12.5945V16.1756H118.089C117.27 16.1756 116.649 16.3648 116.239 16.7296C115.83 17.081 115.619 17.7161 115.619 18.6215V23.7431H112.316V12.7161H115.619V14.5539Z" fill="white"/>
<path d="M15.3885 7.9054V0C6.8951 0 0 6.97297 0 15.5676H7.81974C8.03108 11.4324 11.3069 8.12162 15.3885 7.9054Z" fill="#00D2B7"/>
<path d="M7.81974 16.4324H0C0 25.027 6.8951 31.9999 15.3885 31.9999V24.0945C11.3069 23.8783 8.03108 20.5675 7.81974 16.4324Z" fill="white"/>
<path d="M31.2393 12.0676C29.6674 5.16216 23.5517 0 16.2471 0V7.9054C19.087 8.05405 21.5307 9.68919 22.8252 12.0676H31.2393Z" fill="white"/>
<path d="M22.9176 19.7568C21.6363 22.2163 19.1398 23.9325 16.2471 24.0947V32.0001C23.6177 32.0001 29.7731 26.7568 31.2921 19.7568H22.9176Z" fill="white"/>
</svg>
