<svg width="40" height="40" viewBox="0 0 40 40" fill="none" xmlns="http://www.w3.org/2000/svg">
<rect width="40" height="40" rx="20" fill="#383940"/>
<g opacity="0.3">
<path d="M31.4957 13.8148C31.2174 12.7037 30.4 11.8333 29.3739 11.537C27.4957 11 20 11 20 11C20 11 12.487 11 10.6261 11.537C9.6 11.8333 8.78261 12.7037 8.50435 13.8148C8 15.8148 8 20 8 20C8 20 8 24.1852 8.50435 26.1852C8.78261 27.2963 9.6 28.1667 10.6261 28.463C12.5043 29 20 29 20 29C20 29 27.513 29 29.3739 28.463C30.4 28.1667 31.2174 27.2963 31.4957 26.1852C32 24.1852 32 20 32 20C32 20 32 15.8148 31.4957 13.8148ZM17.5478 23.7963V16.2037L23.8261 20L17.5478 23.7963Z" fill="white"/>
</g>
</svg>
