<svg width="20" height="20" viewBox="0 0 20 20" fill="none" xmlns="http://www.w3.org/2000/svg">
<path fill-rule="evenodd" clip-rule="evenodd" d="M9.29279 2.29279C9.48031 2.10532 9.73462 2 9.99979 2C10.265 2 10.5193 2.10532 10.7068 2.29279L17.7068 9.29279C17.8466 9.43264 17.9418 9.6108 17.9804 9.80476C18.0189 9.99871 17.9991 10.1997 17.9235 10.3824C17.8478 10.5651 17.7197 10.7213 17.5552 10.8312C17.3908 10.9411 17.1975 10.9997 16.9998 10.9998H15.9998V16.9998C15.9998 17.265 15.8944 17.5194 15.7069 17.7069C15.5194 17.8944 15.265 17.9998 14.9998 17.9998H12.9998C12.7346 17.9998 12.4802 17.8944 12.2927 17.7069C12.1051 17.5194 11.9998 17.265 11.9998 16.9998V13.9998C11.9998 13.7346 11.8944 13.4802 11.7069 13.2927C11.5194 13.1051 11.265 12.9998 10.9998 12.9998H8.99979C8.73457 12.9998 8.48022 13.1051 8.29268 13.2927C8.10514 13.4802 7.99979 13.7346 7.99979 13.9998V16.9998C7.99979 17.265 7.89443 17.5194 7.70689 17.7069C7.51936 17.8944 7.265 17.9998 6.99979 17.9998H4.99979C4.73457 17.9998 4.48022 17.8944 4.29268 17.7069C4.10514 17.5194 3.99979 17.265 3.99979 16.9998V10.9998H2.99979C2.80204 10.9997 2.60874 10.9411 2.44433 10.8312C2.27992 10.7213 2.15178 10.5651 2.07611 10.3824C2.00044 10.1997 1.98064 9.99871 2.0192 9.80476C2.05777 9.6108 2.15298 9.43264 2.29279 9.29279L9.29279 2.29279Z" fill="#DADEE4"/>
</svg>
