<svg width="40" height="40" viewBox="0 0 40 40" fill="none" xmlns="http://www.w3.org/2000/svg">
<rect width="40" height="40" rx="20" fill="#383940"/>
<g opacity="0.3">
<path fill-rule="evenodd" clip-rule="evenodd" d="M27.9216 10H12.0707C9.82718 10 8 11.8752 8 14.1601V24.2294C8 26.5222 9.83489 28.3895 12.0707 28.3895H17.6678L18.6315 30.0913L19.5798 31.7695C19.7494 32.0768 20.1812 32.0768 20.3585 31.7695L21.3068 30.0913L22.2705 28.3895H27.9293C30.1728 28.3895 32 26.5143 32 24.2294V14.168C32 11.8752 30.1651 10 27.9216 10ZM21.1061 17.375C19.8803 17.375 18.8857 18.3756 18.8857 19.6126C18.8857 20.8496 19.8803 21.8502 21.1061 21.8502C22.3319 21.8502 23.3265 20.8496 23.3265 19.6126C23.3265 18.3756 22.3396 17.375 21.1061 17.375ZM21.1061 20.6842C20.5202 20.6842 20.0422 20.2035 20.0422 19.6126C20.0422 19.0217 20.5202 18.5411 21.1061 18.5411C21.692 18.5411 22.17 19.0217 22.17 19.6126C22.17 20.2035 21.6997 20.6842 21.1061 20.6842ZM12.8107 17.8906C13.1576 17.5676 13.6048 17.3785 14.0828 17.3785C15.193 17.3785 16.0796 18.387 16.0796 19.624C16.0796 20.861 15.1852 21.8616 14.0828 21.8616C13.5971 21.8616 13.1576 21.6646 12.8107 21.3495V21.7513H11.5771V16.0391H12.8107V17.8906ZM12.8184 20.0573C12.988 20.4592 13.3812 20.7349 13.8361 20.7349C14.4528 20.7349 14.9462 20.2386 14.9462 19.6161C14.9462 18.9937 14.4528 18.4973 13.8361 18.4973C13.3812 18.4973 12.988 18.7731 12.8184 19.1749C12.7567 19.3088 12.7259 19.4585 12.7259 19.6161C12.7259 19.7737 12.7644 19.9234 12.8184 20.0573ZM27.1738 17.4695V17.824C26.8269 17.5483 26.3952 17.3828 25.9326 17.3828C24.7993 17.3828 23.8818 18.3519 23.8818 19.5416C23.8818 20.7314 24.7993 21.7005 25.9326 21.7005C26.4029 21.7005 26.8346 21.535 27.1738 21.2593V21.8581C27.1738 21.8581 27.0505 22.449 26.187 22.449V23.5599C26.187 23.5599 27.1199 23.6702 27.9525 22.8193C27.9525 22.8193 28.338 22.4017 28.4228 21.8502V17.4695H27.1738ZM26.1639 20.6368C25.5394 20.6368 25.0383 20.1404 25.0383 19.5338C25.0383 18.9271 25.5471 18.4307 26.1639 18.4307C26.6033 18.4307 26.9888 18.6828 27.1738 19.0453C27.2509 19.195 27.2895 19.3604 27.2895 19.5338C27.2895 19.7071 27.2432 19.8804 27.1738 20.0223C26.9888 20.3926 26.6033 20.6368 26.1639 20.6368ZM16.2188 17.0688V15.9264C16.2188 15.9264 17.036 15.816 17.7607 16.6906C17.7607 16.6906 18.0922 17.1161 18.1693 17.6834V17.7149V21.7489H16.8972V17.7149C16.7893 17.1476 16.2188 17.0688 16.2188 17.0688Z" fill="white"/>
</g>
</svg>
