<svg width="40" height="40" viewBox="0 0 40 40" fill="none" xmlns="http://www.w3.org/2000/svg">
<rect width="40" height="40" rx="20" fill="#383940"/>
<g opacity="0.3">
<path d="M19.9952 10.1623C23.2 10.1623 23.5762 10.1766 24.8429 10.2338C26.0143 10.2862 26.6476 10.4814 27.0714 10.6481C27.6333 10.8672 28.0333 11.1244 28.4524 11.5436C28.8714 11.9627 29.1333 12.3628 29.3476 12.9248C29.5095 13.3487 29.7095 13.9821 29.7619 15.1538C29.819 16.4207 29.8333 16.797 29.8333 20.0024C29.8333 23.2078 29.819 23.584 29.7619 24.851C29.7095 26.0226 29.5143 26.6561 29.3476 27.08C29.1286 27.642 28.8714 28.0421 28.4524 28.4612C28.0333 28.8803 27.6333 29.1423 27.0714 29.3566C26.6476 29.5186 26.0143 29.7186 24.8429 29.771C23.5762 29.8281 23.2 29.8424 19.9952 29.8424C16.7905 29.8424 16.4143 29.8281 15.1476 29.771C13.9762 29.7186 13.3429 29.5233 12.919 29.3566C12.3571 29.1375 11.9571 28.8803 11.5381 28.4612C11.119 28.0421 10.8571 27.642 10.6429 27.08C10.481 26.6561 10.281 26.0226 10.2286 24.851C10.1714 23.584 10.1571 23.2078 10.1571 20.0024C10.1571 16.797 10.1714 16.4207 10.2286 15.1538C10.281 13.9821 10.4762 13.3487 10.6429 12.9248C10.8619 12.3628 11.119 11.9627 11.5381 11.5436C11.9571 11.1244 12.3571 10.8625 12.919 10.6481C13.3429 10.4862 13.9762 10.2862 15.1476 10.2338C16.4143 10.1719 16.7952 10.1623 19.9952 10.1623ZM19.9952 8C16.7381 8 16.3286 8.01429 15.0476 8.07144C13.7714 8.1286 12.9 8.3334 12.1381 8.6287C11.3476 8.93352 10.681 9.34789 10.0143 10.0147C9.34762 10.6815 8.9381 11.353 8.62857 12.1389C8.33333 12.901 8.12857 13.7726 8.07143 15.0538C8.01429 16.3302 8 16.7398 8 19.9976C8 23.2554 8.01429 23.665 8.07143 24.9462C8.12857 26.2227 8.33333 27.0943 8.62857 27.8611C8.93333 28.6517 9.34762 29.3185 10.0143 29.9853C10.681 30.6521 11.3524 31.0617 12.1381 31.3713C12.9 31.6666 13.7714 31.8714 15.0524 31.9286C16.3333 31.9857 16.7381 32 20 32C23.2619 32 23.6667 31.9857 24.9476 31.9286C26.2238 31.8714 27.0952 31.6666 27.8619 31.3713C28.6524 31.0665 29.319 30.6521 29.9857 29.9853C30.6524 29.3185 31.0619 28.647 31.3714 27.8611C31.6667 27.099 31.8714 26.2274 31.9286 24.9462C31.9857 23.665 32 23.2602 32 19.9976C32 16.7351 31.9857 16.3302 31.9286 15.049C31.8714 13.7726 31.6667 12.901 31.3714 12.1342C31.0667 11.3435 30.6524 10.6767 29.9857 10.0099C29.319 9.34312 28.6476 8.93352 27.8619 8.62393C27.1 8.32864 26.2286 8.12383 24.9476 8.06668C23.6619 8.01429 23.2524 8 19.9952 8Z" fill="white"/>
<path d="M20 14C16.6893 14 14 16.6847 14 20C14 23.3153 16.6847 26 20 26C23.3153 26 26 23.3153 26 20C26 16.6847 23.3153 14 20 14ZM20 23.8903C17.8485 23.8903 16.1051 22.1468 16.1051 19.9954C16.1051 17.8439 17.8485 16.1005 20 16.1005C22.1515 16.1005 23.8949 17.8439 23.8949 19.9954C23.8949 22.1468 22.1515 23.8903 20 23.8903Z" fill="white"/>
<path d="M26.5 15C27.3284 15 28 14.3284 28 13.5C28 12.6716 27.3284 12 26.5 12C25.6716 12 25 12.6716 25 13.5C25 14.3284 25.6716 15 26.5 15Z" fill="white"/>
</g>
</svg>
