<svg width="229" height="60" viewBox="0 0 229 60" fill="none" xmlns="http://www.w3.org/2000/svg">
<g clip-path="url(#clip0_443_6602)">
<path d="M29.5286 14.7963V0C13.2192 0 0 13.0458 0 29.1411H14.993C15.4038 21.4021 21.6866 15.2016 29.5286 14.7963Z" fill="#00D2B7"/>
<path d="M14.993 30.7442H0C0 46.8395 13.2192 59.8853 29.5286 59.8853V45.089C21.6866 44.6837 15.4038 38.4832 14.993 30.7442Z" fill="white"/>
<path d="M59.9999 22.5974C57.0208 9.65563 45.4319 0 31.5788 0V14.8038C36.9513 15.0849 41.5859 18.1544 44.0531 22.5974H59.9999Z" fill="white"/>
<path d="M44.1935 37.4026C41.7791 41.9512 37.0653 45.1229 31.5788 45.4046V60C45.5088 60 57.1486 50.3213 59.9999 37.4026H44.1935Z" fill="white"/>
<path d="M69 20.6502C69 18.0791 69.5753 15.7923 70.726 13.7899C71.8766 11.7627 73.4748 10.1928 75.5204 9.08035C77.5916 7.94314 79.9313 7.37454 82.5394 7.37454C85.7357 7.37454 88.4717 8.19036 90.7475 9.822C93.0232 11.4536 94.5446 13.6786 95.3117 16.4969H88.1009C87.564 15.4091 86.7969 14.581 85.7996 14.0124C84.828 13.4438 83.7156 13.1595 82.4627 13.1595C80.4427 13.1595 78.8062 13.8393 77.5532 15.199C76.3003 16.5587 75.6738 18.3758 75.6738 20.6502C75.6738 22.9246 76.3003 24.7417 77.5532 26.1014C78.8062 27.4611 80.4427 28.1409 82.4627 28.1409C83.7156 28.1409 84.828 27.8566 85.7996 27.288C86.7969 26.7194 87.564 25.8912 88.1009 24.8035H95.3117C94.5446 27.6218 93.0232 29.8467 90.7475 31.4784C88.4717 33.0853 85.7357 33.8888 82.5394 33.8888C79.9313 33.8888 77.5916 33.3325 75.5204 32.22C73.4748 31.0828 71.8766 29.513 70.726 27.5105C69.5753 25.508 69 23.2213 69 20.6502Z" fill="white"/>
<path d="M105.12 6.26205V33.7033H98.561V6.26205H105.12Z" fill="white"/>
<path d="M129.281 23.0235C129.281 23.6168 129.242 24.2349 129.166 24.8776H114.322C114.424 26.1632 114.846 27.152 115.588 27.8443C116.355 28.5117 117.288 28.8455 118.388 28.8455C120.024 28.8455 121.162 28.178 121.801 26.843H128.782C128.424 28.2027 127.772 29.4265 126.826 30.5142C125.905 31.602 124.742 32.4549 123.336 33.0729C121.929 33.691 120.357 34 118.618 34C116.521 34 114.655 33.5674 113.018 32.7021C111.382 31.8368 110.103 30.6007 109.183 28.9938C108.262 27.3869 107.802 25.508 107.802 23.3572C107.802 21.2064 108.249 19.3276 109.144 17.7206C110.065 16.1137 111.343 14.8776 112.98 14.0124C114.616 13.1471 116.496 12.7145 118.618 12.7145C120.689 12.7145 122.53 13.1347 124.141 13.9753C125.752 14.8158 127.005 16.0148 127.9 17.5723C128.82 19.1298 129.281 20.9468 129.281 23.0235ZM122.569 21.3548C122.569 20.267 122.185 19.4017 121.418 18.759C120.651 18.1162 119.692 17.7948 118.541 17.7948C117.442 17.7948 116.508 18.1038 115.741 18.7219C115 19.3399 114.54 20.2176 114.361 21.3548H122.569Z" fill="white"/>
<path d="M130.67 23.3201C130.67 21.1941 131.079 19.3276 131.897 17.7206C132.741 16.1137 133.879 14.8776 135.311 14.0124C136.743 13.1471 138.341 12.7145 140.105 12.7145C141.614 12.7145 142.931 13.0111 144.056 13.6044C145.206 14.1978 146.088 14.9765 146.702 15.9407V13.0111H153.261V33.7033H146.702V30.7738C146.063 31.7379 145.168 32.5167 144.017 33.11C142.892 33.7033 141.575 34 140.067 34C138.328 34 136.743 33.5674 135.311 32.7021C133.879 31.8121 132.741 30.5637 131.897 28.9567C131.079 27.3251 130.67 25.4462 130.67 23.3201ZM146.702 23.3572C146.702 21.775 146.242 20.5266 145.321 19.6119C144.426 18.6972 143.327 18.2398 142.023 18.2398C140.719 18.2398 139.606 18.6972 138.686 19.6119C137.791 20.5019 137.343 21.7379 137.343 23.3201C137.343 24.9023 137.791 26.1632 138.686 27.1026C139.606 28.0173 140.719 28.4747 142.023 28.4747C143.327 28.4747 144.426 28.0173 145.321 27.1026C146.242 26.1879 146.702 24.9394 146.702 23.3572Z" fill="white"/>
<path d="M170.28 12.7886C172.785 12.7886 174.78 13.5797 176.263 15.1619C177.772 16.7194 178.526 18.8702 178.526 21.6143V33.7033H172.006V22.4672C172.006 21.0828 171.635 20.0074 170.893 19.241C170.152 18.4747 169.154 18.0915 167.902 18.0915C166.649 18.0915 165.651 18.4747 164.91 19.241C164.168 20.0074 163.797 21.0828 163.797 22.4672V33.7033H157.239V13.0111H163.797V15.7553C164.462 14.8405 165.357 14.1236 166.482 13.6044C167.607 13.0606 168.873 12.7886 170.28 12.7886Z" fill="white"/>
<path d="M185.615 10.8603C184.464 10.8603 183.518 10.5389 182.777 9.89617C182.061 9.22868 181.703 8.41286 181.703 7.4487C181.703 6.45983 182.061 5.64401 182.777 5.00124C183.518 4.33375 184.464 4 185.615 4C186.74 4 187.661 4.33375 188.377 5.00124C189.118 5.64401 189.489 6.45983 189.489 7.4487C189.489 8.41286 189.118 9.22868 188.377 9.89617C187.661 10.5389 186.74 10.8603 185.615 10.8603ZM188.875 13.0111V33.7033H182.317V13.0111H188.875Z" fill="white"/>
<path d="M213.036 23.0235C213.036 23.6168 212.998 24.2349 212.921 24.8776H198.078C198.18 26.1632 198.602 27.152 199.343 27.8443C200.11 28.5117 201.044 28.8455 202.143 28.8455C203.78 28.8455 204.918 28.178 205.557 26.843H212.537C212.18 28.2027 211.527 29.4265 210.581 30.5142C209.661 31.602 208.497 32.4549 207.091 33.0729C205.685 33.691 204.112 34 202.373 34C200.277 34 198.41 33.5674 196.773 32.7021C195.137 31.8368 193.858 30.6007 192.938 28.9938C192.017 27.3869 191.557 25.508 191.557 23.3572C191.557 21.2064 192.005 19.3276 192.9 17.7206C193.82 16.1137 195.099 14.8776 196.735 14.0124C198.372 13.1471 200.251 12.7145 202.373 12.7145C204.445 12.7145 206.286 13.1347 207.896 13.9753C209.507 14.8158 210.76 16.0148 211.655 17.5723C212.576 19.1298 213.036 20.9468 213.036 23.0235ZM206.324 21.3548C206.324 20.267 205.94 19.4017 205.173 18.759C204.406 18.1162 203.447 17.7948 202.297 17.7948C201.197 17.7948 200.264 18.1038 199.497 18.7219C198.755 19.3399 198.295 20.2176 198.116 21.3548H206.324Z" fill="white"/>
<path d="M222.288 16.4598C223.055 15.3226 224.014 14.4326 225.164 13.7899C226.315 13.1224 227.594 12.7886 229 12.7886V19.5006H227.197C225.561 19.5006 224.333 19.8467 223.515 20.5389C222.697 21.2064 222.288 22.3931 222.288 24.0989V33.7033H215.729V13.0111H222.288V16.4598Z" fill="white"/>
<path d="M174.592 45.568C174.556 44.812 174.502 43.912 173.71 42.94C172.846 41.914 171.424 41.428 170.11 41.428C167.878 41.428 165.448 42.85 165.448 45.352C165.448 47.854 167.77 48.79 168.706 49.168C170.758 50.032 171.316 50.248 171.316 51.13C171.316 51.742 170.83 52.408 170.02 52.408C169.588 52.408 168.634 52.138 168.634 50.59H165.25V51.022C165.25 52.732 166.204 55.252 170.056 55.252C173.584 55.252 174.7 53.11 174.7 51.166C174.7 49.618 174.07 48.466 171.586 47.35C169.192 46.27 168.832 46.108 168.832 45.316C168.832 44.686 169.408 44.272 170.002 44.272C171.046 44.272 171.154 45.118 171.226 45.568H174.592ZM176.225 55H179.483L179.393 46.918L179.429 46.9L184.505 55H187.457V41.68H184.199L184.343 50.014L184.307 50.05L179.159 41.68H176.225V55ZM197.721 53.074L198.369 55H202.059L196.767 41.68H194.085L188.739 55H192.393L193.095 53.074H197.721ZM195.399 45.82H195.435H195.453L196.821 50.374H194.031L195.399 45.82ZM212.251 50.014C212.035 50.482 211.171 52.264 209.047 52.264C206.833 52.264 205.465 50.32 205.465 48.304C205.465 46.414 206.743 44.416 209.029 44.416C210.865 44.416 211.873 45.748 212.251 46.738H215.815C215.455 44.65 213.223 41.428 209.047 41.428C204.691 41.428 202.063 44.92 202.063 48.322C202.063 51.922 204.907 55.252 209.083 55.252C212.305 55.252 215.041 53.164 215.815 50.014H212.251ZM217.839 55H221.241V49.24H221.277L224.913 55H228.891L224.193 48.322L228.603 41.68H225.039L221.277 47.674H221.241V41.68H217.839V55Z" fill="#00D2B7"/>
</g>
<defs>
<clipPath id="clip0_443_6602">
<rect width="229" height="60" fill="white"/>
</clipPath>
</defs>
</svg>
