<svg width="89" height="24" viewBox="0 0 89 24" fill="none" xmlns="http://www.w3.org/2000/svg">
<path d="M27.9082 12.5979C27.9082 11.5743 28.1255 10.652 28.5602 9.8513C28.9949 9.04049 29.5975 8.41211 30.3681 7.96616C31.1485 7.51008 32.0277 7.28711 33.0156 7.28711C34.2209 7.28711 35.2483 7.61143 36.1078 8.27022C36.9673 8.91887 37.5402 9.81076 37.8267 10.9358H35.11C34.9124 10.4999 34.616 10.1655 34.2406 9.94251C33.8751 9.71954 33.4503 9.59792 32.986 9.59792C32.2253 9.59792 31.603 9.87157 31.1386 10.4087C30.6644 10.956 30.4273 11.6756 30.4273 12.5878C30.4273 13.4999 30.6644 14.2195 31.1386 14.7668C31.6128 15.3141 32.2253 15.5777 32.986 15.5777C33.4602 15.5777 33.8751 15.4662 34.2406 15.2331C34.616 15.0101 34.9025 14.6756 35.11 14.2398H37.8267C37.5402 15.3648 36.9673 16.2567 36.1078 16.9054C35.2483 17.5439 34.2209 17.8682 33.0156 17.8682C32.0277 17.8682 31.1485 17.6452 30.3681 17.1993C29.5975 16.7432 28.9949 16.1148 28.5602 15.3141C28.1255 14.5135 27.9082 13.6216 27.9082 12.5979Z" fill="#171717"/>
<path d="M41.6304 6.84119V17.8175H39.1606V6.84119H41.6304Z" fill="#171717"/>
<path d="M50.8474 13.5405C50.8474 13.7736 50.8375 14.027 50.8079 14.2804H45.2163C45.2559 14.7973 45.4139 15.1925 45.6905 15.4662C45.977 15.7297 46.3327 15.8716 46.7476 15.8716C47.3601 15.8716 47.7948 15.6081 48.0319 15.0709H50.6597C50.5214 15.6182 50.2744 16.1047 49.9187 16.5405C49.573 16.9763 49.1284 17.3209 48.6048 17.5642C48.0714 17.8074 47.4786 17.9392 46.8266 17.9392C46.0363 17.9392 45.3349 17.7669 44.7125 17.4223C44.1 17.0777 43.6159 16.5811 43.2702 15.9425C42.9244 15.304 42.7466 14.5439 42.7466 13.6925C42.7466 12.8311 42.9145 12.0811 43.2504 11.4425C43.5962 10.804 44.0802 10.3074 44.6927 9.96282C45.3052 9.61822 46.0165 9.44592 46.8167 9.44592C47.5972 9.44592 48.2887 9.61822 48.9012 9.95268C49.5038 10.2871 49.978 10.7635 50.3139 11.3919C50.6794 11.9898 50.8474 12.7196 50.8474 13.5405ZM48.3183 12.8817C48.3183 12.4459 48.1702 12.1013 47.8837 11.848C47.5972 11.5946 47.2317 11.4628 46.797 11.4628C46.3821 11.4628 46.0264 11.5844 45.7399 11.8378C45.4633 12.0811 45.2855 12.4358 45.2163 12.8919H48.3183V12.8817Z" fill="#171717"/>
<path d="M51.4893 13.6621C51.4893 12.8108 51.6473 12.0608 51.9536 11.4223C52.2697 10.7838 52.7044 10.2871 53.2378 9.94255C53.7812 9.59796 54.3838 9.42566 55.0457 9.42566C55.6187 9.42566 56.1126 9.54728 56.5374 9.78039C56.9721 10.0135 57.308 10.3277 57.5352 10.7128V9.53715H60.005V17.8175H57.5352V16.6419C57.2981 17.027 56.9524 17.3412 56.5276 17.5743C56.1028 17.8074 55.6088 17.929 55.0358 17.929C54.3838 17.929 53.7812 17.7567 53.2477 17.4121C52.7044 17.0574 52.2796 16.5608 51.9635 15.9121C51.6374 15.2635 51.4893 14.5135 51.4893 13.6621ZM57.5352 13.6824C57.5352 13.054 57.3574 12.5473 57.0116 12.1824C56.6757 11.8176 56.2608 11.6351 55.7669 11.6351C55.2729 11.6351 54.858 11.8176 54.5122 12.1824C54.1764 12.5371 54.0084 13.0338 54.0084 13.6621C54.0084 14.2905 54.1764 14.7973 54.5122 15.1723C54.858 15.5371 55.2828 15.7196 55.7669 15.7196C56.2608 15.7196 56.6757 15.5371 57.0116 15.1723C57.3574 14.8074 57.5352 14.3108 57.5352 13.6824Z" fill="#171717"/>
<path d="M66.5255 9.45605C67.4739 9.45605 68.2247 9.77024 68.7779 10.4088C69.3509 11.027 69.6275 11.8885 69.6275 12.9932V17.8277H67.1775V13.3378C67.1775 12.7804 67.0392 12.3547 66.7626 12.0506C66.486 11.7466 66.1106 11.5946 65.6364 11.5946C65.1622 11.5946 64.7868 11.7466 64.5102 12.0506C64.2335 12.3547 64.0952 12.7905 64.0952 13.3378V17.8277H61.6255V9.53714H64.0952V10.6317C64.3422 10.2669 64.688 9.98308 65.1029 9.77024C65.5277 9.55741 66.0019 9.45605 66.5255 9.45605Z" fill="#171717"/>
<path d="M72.4231 8.6757C71.9885 8.6757 71.6328 8.54395 71.3562 8.29057C71.0895 8.02705 70.9512 7.69259 70.9512 7.30746C70.9512 6.91219 71.0895 6.58786 71.3562 6.32435C71.6328 6.06084 71.9885 5.91895 72.4231 5.91895C72.8479 5.91895 73.1937 6.0507 73.4604 6.32435C73.7371 6.57773 73.8754 6.91219 73.8754 7.30746C73.8754 7.69259 73.7371 8.01692 73.4604 8.29057C73.1937 8.55408 72.8479 8.6757 72.4231 8.6757ZM73.6481 9.53719V17.8176H71.1784V9.53719H73.6481Z" fill="#171717"/>
<path d="M82.8752 13.5405C82.8752 13.7736 82.8653 14.027 82.8357 14.2804H77.2442C77.2837 14.7973 77.4417 15.1925 77.7184 15.4662C78.0048 15.7297 78.3605 15.8716 78.7754 15.8716C79.3879 15.8716 79.8226 15.6081 80.0597 15.0709H82.6875C82.5492 15.6182 82.3022 16.1047 81.9466 16.5405C81.6008 16.9763 81.1563 17.3209 80.6327 17.5642C80.0992 17.8074 79.5065 17.9392 78.8544 17.9392C78.0641 17.9392 77.3627 17.7669 76.7403 17.4223C76.1278 17.0777 75.6438 16.5811 75.298 15.9425C74.9522 15.304 74.7744 14.5439 74.7744 13.6925C74.7744 12.8311 74.9424 12.0811 75.2782 11.4425C75.624 10.804 76.1081 10.3074 76.7206 9.96282C77.3331 9.61822 78.0444 9.44592 78.8446 9.44592C79.625 9.44592 80.3165 9.61822 80.929 9.95268C81.5317 10.2871 82.0058 10.7635 82.3417 11.3919C82.6974 11.9898 82.8752 12.7196 82.8752 13.5405ZM80.3462 12.8817C80.3462 12.4459 80.198 12.1013 79.9115 11.848C79.625 11.5946 79.2595 11.4628 78.8248 11.4628C78.4099 11.4628 78.0542 11.5844 77.7678 11.8378C77.4911 12.0811 77.3133 12.4358 77.2442 12.8919H80.3462V12.8817Z" fill="#171717"/>
<path d="M86.4707 10.9155C86.7572 10.4594 87.1227 10.1047 87.5574 9.85133C87.9921 9.58782 88.4762 9.44592 88.9997 9.44592V12.1317H88.3181C87.7056 12.1317 87.2413 12.2736 86.935 12.5473C86.6288 12.8108 86.4707 13.2871 86.4707 13.9662V17.8074H84.001V9.53714H86.4707V10.9155Z" fill="#171717"/>
<path d="M11.7694 5.92905V0C5.27349 0 0 5.22973 0 11.6757H5.98067C6.14231 8.57433 8.64772 6.09122 11.7694 5.92905Z" fill="#00D2B7"/>
<path d="M5.98067 12.3245H0C0 18.7704 5.27349 24.0001 11.7694 24.0001V18.0711C8.64772 17.9089 6.14231 15.4258 5.98067 12.3245Z" fill="#171717"/>
<path d="M23.8926 9.05068C22.6904 3.87162 18.0129 0 12.4263 0V5.92905C14.5983 6.04054 16.4673 7.26689 17.4573 9.05068H23.8926Z" fill="#171717"/>
<path d="M17.528 14.8176C16.5481 16.6622 14.6387 17.9494 12.4263 18.071V24.0001C18.0635 24.0001 22.7712 20.0676 23.933 14.8176H17.528Z" fill="#171717"/>
</svg>
