<svg width="60" height="60" viewBox="0 0 60 60" fill="none" xmlns="http://www.w3.org/2000/svg">
<path d="M52.5 15C52.5 13.0109 51.7098 11.1032 50.3033 9.6967C48.8968 8.29018 46.9891 7.5 45 7.5H15C13.0109 7.5 11.1032 8.29018 9.6967 9.6967C8.29018 11.1032 7.5 13.0109 7.5 15V52.5H42.5V27.5H52.5V15ZM37.5 47.5H12.5V15C12.5 14.337 12.7634 13.7011 13.2322 13.2322C13.7011 12.7634 14.337 12.5 15 12.5H37.96C37.6639 13.3006 37.5083 14.1464 37.5 15V47.5ZM47.5 22.5H42.5V15C42.5 14.337 42.7634 13.7011 43.2322 13.2322C43.7011 12.7634 44.337 12.5 45 12.5C45.663 12.5 46.2989 12.7634 46.7678 13.2322C47.2366 13.7011 47.5 14.337 47.5 15V22.5Z" fill="#575B65"/>
<path d="M32.5 17.5H17.5V22.5H32.5V17.5Z" fill="#575B65"/>
<path d="M32.5 27.5H17.5V32.5H32.5V27.5Z" fill="#575B65"/>
<path d="M27.5 37.5H17.5V42.5H27.5V37.5Z" fill="#575B65"/>
</svg>
