<svg width="60" height="60" viewBox="0 0 60 60" fill="none" xmlns="http://www.w3.org/2000/svg">
<path d="M17.5 52.5C13.365 52.5 10 49.135 10 45C10 40.865 13.365 37.5 17.5 37.5C21.635 37.5 25 40.865 25 45C25 49.135 21.635 52.5 17.5 52.5ZM17.5 42.5C16.1225 42.5 15 43.62 15 45C15 46.38 16.1225 47.5 17.5 47.5C18.8775 47.5 20 46.38 20 45C20 43.62 18.8775 42.5 17.5 42.5Z" fill="#575B65"/>
<path d="M45 52.5C40.865 52.5 37.5 49.135 37.5 45C37.5 40.865 40.865 37.5 45 37.5C49.135 37.5 52.5 40.865 52.5 45C52.5 49.135 49.135 52.5 45 52.5ZM45 42.5C43.62 42.5 42.5 43.62 42.5 45C42.5 46.38 43.62 47.5 45 47.5C46.38 47.5 47.5 46.38 47.5 45C47.5 43.62 46.38 42.5 45 42.5Z" fill="#575B65"/>
<path d="M12.5 47.5H5V10H37.5V32.5H32.5V15H10V42.5H12.5V47.5Z" fill="#575B65"/>
<path d="M40 42.5H22.5V47.5H40V42.5Z" fill="#575B65"/>
<path d="M55 45H50V30.8325L43.75 22.5H35V17.5H46.25L55 29.1675V45Z" fill="#575B65"/>
<path d="M27.5 27.5H15V32.5H27.5V27.5Z" fill="#575B65"/>
<path d="M27.5 20H15V25H27.5V20Z" fill="#575B65"/>
</svg>
