<svg width="60" height="60" viewBox="0 0 60 60" fill="none" xmlns="http://www.w3.org/2000/svg">
<path d="M54.2675 50.7325L42.92 39.385C46.2872 35.1162 47.8961 29.722 47.4175 24.3061C46.9389 18.8902 44.4089 13.8619 40.3452 10.2497C36.2815 6.63761 30.9912 4.71472 25.5565 4.87444C20.1218 5.03417 14.9536 7.26444 11.109 11.109C7.26444 14.9536 5.03417 20.1218 4.87444 25.5565C4.71472 30.9912 6.63761 36.2815 10.2497 40.3452C13.8619 44.4089 18.8902 46.9389 24.3061 47.4175C29.722 47.8961 35.1162 46.2872 39.385 42.92L50.7325 54.2675L54.2675 50.7325ZM26.25 42.5C23.0361 42.5 19.8943 41.547 17.222 39.7614C14.5497 37.9758 12.4669 35.4379 11.237 32.4686C10.007 29.4993 9.68524 26.232 10.3122 23.0798C10.9393 19.9276 12.4869 17.0321 14.7595 14.7595C17.0321 12.4869 19.9276 10.9393 23.0798 10.3122C26.232 9.68524 29.4993 10.007 32.4686 11.237C35.4379 12.4669 37.9758 14.5497 39.7614 17.222C41.547 19.8943 42.5 23.0361 42.5 26.25C42.4947 30.5582 40.781 34.6883 37.7346 37.7346C34.6883 40.781 30.5582 42.4947 26.25 42.5Z" fill="#575B65"/>
<path d="M24.6124 28.575L19.2674 23.2325L15.7324 26.7675L25.3874 36.425L37.0799 18.8875L32.9199 16.1125L24.6124 28.575Z" fill="#575B65"/>
</svg>
