<svg width="14" height="14" viewBox="0 0 14 14" fill="none" xmlns="http://www.w3.org/2000/svg">
<g clip-path="url(#clip0_498_8226)">
<path fill-rule="evenodd" clip-rule="evenodd" d="M5.04695 10.3391C4.95047 10.2388 4.89774 10.1044 4.90037 9.96522C4.90299 9.82608 4.96075 9.69369 5.06095 9.59712L7.81755 7.00011L5.06095 4.40311C5.00891 4.35591 4.96687 4.29874 4.93733 4.23499C4.90779 4.17124 4.89134 4.10221 4.88897 4.03199C4.8866 3.96176 4.89835 3.89178 4.92352 3.82618C4.94869 3.76059 4.98677 3.70071 5.0355 3.6501C5.08424 3.59949 5.14264 3.55917 5.20724 3.53155C5.27184 3.50392 5.34133 3.48954 5.41159 3.48926C5.48186 3.48898 5.55146 3.50281 5.61628 3.52993C5.68109 3.55704 5.73981 3.59689 5.78895 3.64711L8.93895 6.62211C8.98976 6.67109 9.03017 6.7298 9.05778 6.79475C9.08538 6.8597 9.09961 6.92954 9.09961 7.00011C9.09961 7.07069 9.08538 7.14053 9.05778 7.20548C9.03017 7.27043 8.98976 7.32914 8.93895 7.37811L5.78895 10.3531C5.68867 10.4496 5.55418 10.5023 5.41505 10.4997C5.27592 10.4971 5.14352 10.4393 5.04695 10.3391Z" fill="#8B8B8B"/>
</g>
<defs>
<clipPath id="clip0_498_8226">
<rect width="14" height="14" fill="white"/>
</clipPath>
</defs>
</svg>
